<svg xmlns="http://www.w3.org/2000/svg" width="1240" height="560" viewBox="0 0 1240 560">
<rect width="1240" height="560" fill="#faf9f7"/>
<text x="62.0" y="34.0" font-size="17" fill="#1c1c1c" text-anchor="start" font-weight="bold" font-family="Georgia,'Times New Roman',serif">Taiwanese life insurers are short asset duration against their liabilities</text>
<text x="62.0" y="55.0" font-size="11.5" fill="#6b6b6b" text-anchor="start" font-weight="normal" font-family="Georgia,'Times New Roman',serif">Change in equity per basis point of parallel curve rise, from the statutory market-risk note. NT$ millions.</text>
<line x1="62" y1="452.0" x2="532" y2="452.0" stroke="#e2e0dc" stroke-width="1"/>
<text x="54.0" y="455.5" font-size="10" fill="#6b6b6b" text-anchor="end" font-weight="normal" font-family="Georgia,'Times New Roman',serif">0</text>
<line x1="62" y1="389.9" x2="532" y2="389.9" stroke="#e2e0dc" stroke-width="1"/>
<text x="54.0" y="393.4" font-size="10" fill="#6b6b6b" text-anchor="end" font-weight="normal" font-family="Georgia,'Times New Roman',serif">500</text>
<line x1="62" y1="327.8" x2="532" y2="327.8" stroke="#e2e0dc" stroke-width="1"/>
<text x="54.0" y="331.3" font-size="10" fill="#6b6b6b" text-anchor="end" font-weight="normal" font-family="Georgia,'Times New Roman',serif">1,000</text>
<line x1="62" y1="265.7" x2="532" y2="265.7" stroke="#e2e0dc" stroke-width="1"/>
<text x="54.0" y="269.2" font-size="10" fill="#6b6b6b" text-anchor="end" font-weight="normal" font-family="Georgia,'Times New Roman',serif">1,500</text>
<line x1="62" y1="203.6" x2="532" y2="203.6" stroke="#e2e0dc" stroke-width="1"/>
<text x="54.0" y="207.1" font-size="10" fill="#6b6b6b" text-anchor="end" font-weight="normal" font-family="Georgia,'Times New Roman',serif">2,000</text>
<line x1="62" y1="141.4" x2="532" y2="141.4" stroke="#e2e0dc" stroke-width="1"/>
<text x="54.0" y="144.9" font-size="10" fill="#6b6b6b" text-anchor="end" font-weight="normal" font-family="Georgia,'Times New Roman',serif">2,500</text>
<text x="62.0" y="470.0" font-size="10" fill="#6b6b6b" text-anchor="middle" font-weight="normal" font-family="Georgia,'Times New Roman',serif">2018</text>
<text x="143.0" y="470.0" font-size="10" fill="#6b6b6b" text-anchor="middle" font-weight="normal" font-family="Georgia,'Times New Roman',serif">2020</text>
<text x="272.7" y="470.0" font-size="10" fill="#6b6b6b" text-anchor="middle" font-weight="normal" font-family="Georgia,'Times New Roman',serif">2022</text>
<text x="402.3" y="470.0" font-size="10" fill="#6b6b6b" text-anchor="middle" font-weight="normal" font-family="Georgia,'Times New Roman',serif">2024</text>
<text x="532.0" y="470.0" font-size="10" fill="#6b6b6b" text-anchor="middle" font-weight="normal" font-family="Georgia,'Times New Roman',serif">2026</text>
<line x1="62" y1="452" x2="532" y2="452" stroke="#1c1c1c" stroke-width="1"/>
<text x="62.0" y="84.0" font-size="12.5" fill="#1c1c1c" text-anchor="start" font-weight="bold" font-family="Georgia,'Times New Roman',serif">USD asset DV01, the two firms that disclose by currency</text>
<polyline points="62.0,345.3 78.2,339.0 94.4,341.9 110.6,337.6 143.0,357.4 159.2,331.8 175.4,309.1 207.9,280.4 224.1,281.0 240.3,268.5 272.7,262.2 288.9,254.2 305.1,269.8 337.5,331.8 353.7,319.2 369.9,313.2 402.3,301.1 418.6,301.3 434.8,293.3 467.2,281.1 483.4,300.2 499.6,268.0 532.0,137.7" fill="none" stroke="#1b4965" stroke-width="2.1" stroke-linejoin="round"/>
<circle cx="532.0" cy="137.7" r="3.2" fill="#1b4965"/>
<text x="524.0" y="128.7" font-size="11.5" fill="#1b4965" text-anchor="end" font-weight="bold" font-family="Georgia,'Times New Roman',serif">Cathay</text>
<polyline points="126.8,377.3 175.4,375.4 191.7,382.6 207.9,382.8 224.1,373.4 240.3,395.9 256.5,357.7 272.7,356.9 288.9,355.0 305.1,357.7 321.3,353.8 337.5,391.2 353.7,389.9 369.9,390.2 386.1,377.5 402.3,378.8 418.6,372.4 434.8,365.5 451.0,369.5 467.2,371.3 483.4,380.0 499.6,373.0 515.8,372.9" fill="none" stroke="#bc4749" stroke-width="2.1" stroke-linejoin="round"/>
<circle cx="515.8" cy="372.9" r="3.2" fill="#bc4749"/>
<text x="507.8" y="363.9" font-size="11.5" fill="#bc4749" text-anchor="end" font-weight="bold" font-family="Georgia,'Times New Roman',serif">Fubon</text>
<text x="62.0" y="498.0" font-size="10.5" fill="#6b6b6b" text-anchor="start" font-weight="normal" font-family="Georgia,'Times New Roman',serif">Cathay's USD sensitivity rose 84% in the year to 2026-Q1, on the comparison its own</text>
<text x="62.0" y="513.0" font-size="10.5" fill="#6b6b6b" text-anchor="start" font-weight="normal" font-family="Georgia,'Times New Roman',serif">filing prints. Its foreign book did not: the rise is duration extension and IFRS 17</text>
<text x="62.0" y="528.0" font-size="10.5" fill="#6b6b6b" text-anchor="start" font-weight="normal" font-family="Georgia,'Times New Roman',serif">reclassification, not new holdings.</text>
<text x="640.0" y="84.0" font-size="12.5" fill="#1c1c1c" text-anchor="start" font-weight="bold" font-family="Georgia,'Times New Roman',serif">Assets against insurance liabilities, latest disclosure</text>
<line x1="855.7" y1="92" x2="855.7" y2="458" stroke="#1c1c1c" stroke-width="1"/>
<rect x="756.0" y="120.7" width="99.7" height="13.0" fill="#bc4749"/>
<rect x="855.7" y="136.7" width="240.3" height="13.0" fill="#1b4965"/>
<text x="742.0" y="139.2" font-size="11" fill="#1c1c1c" text-anchor="end" font-weight="normal" font-family="Georgia,'Times New Roman',serif">Cathay</text>
<text x="1105.0" y="139.2" font-size="10.5" fill="#6b6b6b" text-anchor="start" font-weight="normal" font-family="Georgia,'Times New Roman',serif">net +3,974</text>
<rect x="805.4" y="191.1" width="50.3" height="13.0" fill="#bc4749"/>
<rect x="855.7" y="207.1" width="138.8" height="13.0" fill="#1b4965"/>
<text x="742.0" y="209.6" font-size="11" fill="#1c1c1c" text-anchor="end" font-weight="normal" font-family="Georgia,'Times New Roman',serif">Fubon</text>
<text x="1003.6" y="209.6" font-size="10.5" fill="#6b6b6b" text-anchor="start" font-weight="normal" font-family="Georgia,'Times New Roman',serif">net +2,512</text>
<rect x="835.7" y="261.5" width="20.0" height="13.0" fill="#bc4749"/>
<rect x="855.7" y="277.5" width="73.7" height="13.0" fill="#1b4965"/>
<text x="742.0" y="280.0" font-size="11" fill="#1c1c1c" text-anchor="end" font-weight="normal" font-family="Georgia,'Times New Roman',serif">KGI</text>
<text x="938.4" y="280.0" font-size="10.5" fill="#6b6b6b" text-anchor="start" font-weight="normal" font-family="Georgia,'Times New Roman',serif">net +1,521</text>
<rect x="838.7" y="331.9" width="17.0" height="13.0" fill="#bc4749"/>
<rect x="855.7" y="347.9" width="62.2" height="13.0" fill="#1b4965"/>
<text x="742.0" y="350.4" font-size="11" fill="#1c1c1c" text-anchor="end" font-weight="normal" font-family="Georgia,'Times New Roman',serif">Taiwan Life</text>
<text x="926.9" y="350.4" font-size="10.5" fill="#6b6b6b" text-anchor="start" font-weight="normal" font-family="Georgia,'Times New Roman',serif">net +1,281</text>
<rect x="848.1" y="402.3" width="7.6" height="13.0" fill="#bc4749"/>
<rect x="855.7" y="418.3" width="50.4" height="13.0" fill="#1b4965"/>
<text x="742.0" y="420.8" font-size="11" fill="#1c1c1c" text-anchor="end" font-weight="normal" font-family="Georgia,'Times New Roman',serif">TransGlobe</text>
<text x="915.1" y="420.8" font-size="10.5" fill="#6b6b6b" text-anchor="start" font-weight="normal" font-family="Georgia,'Times New Roman',serif">net +1,214</text>
<rect x="809.7" y="468" width="38" height="9" fill="#bc4749"/>
<text x="803.7" y="476.0" font-size="10" fill="#bc4749" text-anchor="end" font-weight="bold" font-family="Georgia,'Times New Roman',serif">assets</text>
<rect x="863.7" y="468" width="38" height="9" fill="#1b4965"/>
<text x="907.7" y="476.0" font-size="10" fill="#1b4965" text-anchor="start" font-weight="bold" font-family="Georgia,'Times New Roman',serif">insurance liabilities</text>
<text x="640.0" y="498.0" font-size="10.5" fill="#6b6b6b" text-anchor="start" font-weight="normal" font-family="Georgia,'Times New Roman',serif">Only fair-valued assets reach equity; IFRS 17 marks the liability in</text>
<text x="640.0" y="513.0" font-size="10.5" fill="#6b6b6b" text-anchor="start" font-weight="normal" font-family="Georgia,'Times New Roman',serif">full. The gap shown is therefore an upper bound — but every firm that</text>
<text x="640.0" y="528.0" font-size="10.5" fill="#6b6b6b" text-anchor="start" font-weight="normal" font-family="Georgia,'Times New Roman',serif">discloses both sides shows the same sign.</text>
<text x="62.0" y="548.0" font-size="10" fill="#6b6b6b" text-anchor="start" font-weight="normal" font-family="Georgia,'Times New Roman',serif">Source: statutory quarterly filings via MOPS, notes on market risk. Author's extraction.</text>
</svg>